HIERARCHY
ROOT Hips
{
	OFFSET -0.001795 -0.223333 0.028219
	CHANNELS 6 Xposition Yposition Zposition Zrotation Yrotation Xrotation 
	JOINT LeftUpLeg
	{
		OFFSET 0.069520 -0.091406 -0.006815
		CHANNELS 3 Zrotation Yrotation Xrotation
		JOINT LeftLeg
		{
			OFFSET 0.034277 -0.375199 -0.004496
			CHANNELS 3 Zrotation Yrotation Xrotation
			JOINT LeftFoot
			{
				OFFSET -0.013596 -0.397961 -0.043693
				CHANNELS 3 Zrotation Yrotation Xrotation
				JOINT LeftToe
				{
					OFFSET 0.026358 -0.055791 0.119288
					CHANNELS 3 Zrotation Yrotation Xrotation
					End Site
					{
						OFFSET 0.000000 0.000000 0.000000
					}
				}
			}
		}
	}
	JOINT RightUpLeg
	{
		OFFSET -0.067670 -0.090522 -0.004320
		CHANNELS 3 Zrotation Yrotation Xrotation
		JOINT RightLeg
		{
			OFFSET -0.038290 -0.382569 -0.008850
			CHANNELS 3 Zrotation Yrotation Xrotation
			JOINT RightFoot
			{
				OFFSET 0.015774 -0.398415 -0.042312
				CHANNELS 3 Zrotation Yrotation Xrotation
				JOINT RightToe
				{
					OFFSET -0.025372 -0.048144 0.123348
					CHANNELS 3 Zrotation Yrotation Xrotation
					End Site
					{
						OFFSET 0.000000 0.000000 0.000000
					}
				}
			}
		}
	}
	JOINT Spine
	{
		OFFSET -0.002533 0.108963 -0.026696
		CHANNELS 3 Zrotation Yrotation Xrotation
		JOINT Spine1
		{
			OFFSET 0.005487 0.135180 0.001092
			CHANNELS 3 Zrotation Yrotation Xrotation
			JOINT Spine2
			{
				OFFSET 0.001457 0.052922 0.025425
				CHANNELS 3 Zrotation Yrotation Xrotation
				JOINT Neck
				{
					OFFSET -0.002778 0.213870 -0.042857
					CHANNELS 3 Zrotation Yrotation Xrotation
					JOINT Head
					{
						OFFSET 0.005152 0.064970 0.051349
						CHANNELS 3 Zrotation Yrotation Xrotation
						End Site
						{
							OFFSET 0.000000 0.000000 0.000000
						}
					}
				}
				JOINT LeftShoulder
				{
					OFFSET 0.078845 0.121749 -0.034090
					CHANNELS 3 Zrotation Yrotation Xrotation
					JOINT LeftArm
					{
						OFFSET 0.090977 0.030469 -0.008868
						CHANNELS 3 Zrotation Yrotation Xrotation
						JOINT LeftForeArm
						{
							OFFSET 0.259612 -0.012772 -0.027456
							CHANNELS 3 Zrotation Yrotation Xrotation
							JOINT LeftHand
							{
								OFFSET 0.249234 0.008986 -0.001171
								CHANNELS 3 Zrotation Yrotation Xrotation
								End Site
								{
									OFFSET 0.000000 0.000000 0.000000
								}
							}
						}
					}
				}
				JOINT RightShoulder
				{
					OFFSET -0.081759 0.118833 -0.038615
					CHANNELS 3 Zrotation Yrotation Xrotation
					JOINT RightArm
					{
						OFFSET -0.096012 0.032551 -0.009143
						CHANNELS 3 Zrotation Yrotation Xrotation
						JOINT RightForeArm
						{
							OFFSET -0.253742 -0.013329 -0.021401
							CHANNELS 3 Zrotation Yrotation Xrotation
							JOINT RightHand
							{
								OFFSET -0.255298 0.007772 -0.005559
								CHANNELS 3 Zrotation Yrotation Xrotation
								End Site
								{
									OFFSET 0.000000 0.000000 0.000000
								}
							}
						}
					}
				}
			}
		}
	}
}
MOTION
Frames: 11
Frame Time: 0.050000
-0.137720 0.952281 0.511291 -6.277330 50.167733 2.515396 14.134666 -3.008318 -21.489793 -7.162337 -0.923310 14.755848 10.272945 22.900109 16.790801 0.000000 0.000000 0.000000 -1.484504 0.139021 -7.937610 3.527382 -0.945657 -0.036025 -3.320752 -7.186533 4.977747 0.000000 0.000000 0.000000 9.990729 -0.737830 0.249036 -8.287445 3.339289 -14.485152 -1.511166 14.992553 20.810835 9.646641 0.339891 -15.655693 0.000000 0.000000 0.000000 -29.330271 -16.251542 -13.939717 -32.527621 16.314429 -3.610973 -16.169469 -56.512039 5.390457 0.000000 0.000000 0.000000 36.123111 -6.292693 14.269984 43.547205 15.775094 -5.864072 -2.622283 40.109082 3.240231 0.000000 0.000000 0.000000 
-0.131932 0.951931 0.512064 -5.776480 51.946419 2.363872 12.713444 -2.890940 -20.380148 -5.396572 -0.854198 12.342855 10.372842 22.900781 17.685810 0.000000 0.000000 0.000000 -1.792003 0.011932 -5.991664 3.084502 -0.814762 -1.685091 -4.010441 -8.628842 5.465553 0.000000 0.000000 0.000000 9.791068 -0.738946 0.472899 -8.825833 3.422044 -14.375754 -1.076414 15.466597 21.479795 11.221602 -0.149943 -16.607044 0.000000 0.000000 0.000000 -27.707495 -18.047374 -12.856835 -33.954530 15.465027 -3.687789 -12.090578 -57.213808 2.522102 0.000000 0.000000 0.000000 37.187506 -6.597813 15.307874 42.869153 17.494244 -5.797917 -4.469164 39.225808 2.383634 0.000000 0.000000 0.000000 
-0.121948 0.950654 0.511087 -5.358554 53.633192 2.631008 11.059714 -2.712817 -19.183785 -3.674269 -0.818888 10.684367 10.598954 22.891156 18.098991 0.000000 0.000000 0.000000 -2.435346 -0.161142 -4.907753 2.979615 -0.804445 -2.021259 -4.435702 -9.894678 4.968238 0.000000 0.000000 0.000000 8.812087 -0.692788 1.133187 -8.447686 3.328755 -15.063659 -1.236504 14.926623 21.989177 11.460694 0.332558 -18.155981 0.000000 0.000000 0.000000 -27.338538 -18.261324 -12.907105 -33.568330 14.627954 -3.401083 -9.305927 -56.922757 0.988422 0.000000 0.000000 0.000000 38.504552 -6.143764 16.868395 41.625993 18.741100 -5.957574 -5.955515 39.602839 1.724549 0.000000 0.000000 0.000000 
-0.107824 0.948139 0.508756 -5.652562 54.868065 2.872332 10.193863 -2.585923 -18.293729 -3.165286 -0.686031 8.933856 10.313458 21.907611 15.980328 0.000000 0.000000 0.000000 -3.119101 -0.312381 -4.665492 3.329553 -0.916415 -1.559794 -4.538319 -10.630285 4.052214 0.000000 0.000000 0.000000 8.588216 -0.602637 0.244206 -8.732398 3.341538 -15.221916 -0.881660 14.647891 22.161825 11.328350 0.570047 -18.447984 0.000000 0.000000 0.000000 -26.837689 -18.985973 -12.333383 -33.221657 13.889052 -3.200748 -5.369482 -55.015427 -1.087580 0.000000 0.000000 0.000000 40.442269 -6.549696 17.685679 40.839897 19.547638 -6.300699 -7.987104 38.961399 0.911991 0.000000 0.000000 0.000000 
-0.091760 0.946431 0.505468 -5.628060 55.493116 3.185753 9.536960 -2.335902 -16.696067 -3.577859 -0.497990 6.638911 10.391873 21.218122 14.254361 0.000000 0.000000 0.000000 -3.693764 -0.430144 -5.136332 3.309122 -1.014056 0.460893 -4.743933 -11.784812 2.914864 0.000000 0.000000 0.000000 7.567527 -0.452533 -0.406972 -8.428705 3.271661 -15.774361 -0.493931 13.446352 22.769428 10.612764 1.088210 -18.732282 0.000000 0.000000 0.000000 -26.596937 -18.813913 -12.076437 -32.562381 13.098354 -2.990346 -2.503189 -52.958611 -2.321893 0.000000 0.000000 0.000000 41.102384 -6.699833 17.715399 40.240829 19.374689 -6.567691 -7.645094 39.222130 0.978053 0.000000 0.000000 0.000000 
-0.076324 0.946722 0.501898 -5.268812 55.448059 3.388068 8.700531 -1.995880 -14.636700 -4.022817 -0.380866 4.452686 10.531036 20.818557 13.330745 0.000000 0.000000 0.000000 -4.585107 -0.614247 -5.739386 3.564785 -1.230108 2.514095 -5.204428 -12.718463 3.190063 0.000000 0.000000 0.000000 6.234297 -0.338039 -0.156644 -7.783351 3.170602 -16.460852 -0.775580 12.656842 22.951748 10.350071 1.006933 -18.302822 0.000000 0.000000 0.000000 -26.335077 -18.880766 -11.591922 -31.824064 11.863215 -2.667800 1.325186 -50.355235 -3.805742 0.000000 0.000000 0.000000 42.711205 -6.901738 18.151741 40.125059 19.739904 -6.897356 -8.227336 39.159671 0.771242 0.000000 0.000000 0.000000 
-0.062959 0.949304 0.499402 -5.816687 56.073954 3.097100 8.123779 -1.839802 -13.623635 -3.667740 -0.343992 3.262855 10.068403 20.058931 12.913452 0.000000 0.000000 0.000000 -5.124423 -0.758971 -6.033383 4.189761 -1.597242 4.095062 -5.455326 -13.007619 3.694038 0.000000 0.000000 0.000000 5.328290 -0.230957 -1.046449 -7.339905 3.121486 -15.978666 -0.771310 11.708849 22.437306 10.687845 0.499504 -17.670360 0.000000 0.000000 0.000000 -25.904957 -18.896306 -11.130668 -31.849133 10.958599 -2.509125 4.265130 -47.962661 -4.936407 0.000000 0.000000 0.000000 43.084268 -6.968421 18.061910 41.255973 18.822520 -7.208882 -7.570905 39.509646 1.101588 0.000000 0.000000 0.000000 
-0.052097 0.952025 0.498741 -6.487148 55.980002 2.748472 8.494599 -1.718686 -12.210888 -4.390117 -0.344075 1.369689 10.028621 19.965398 13.174676 0.000000 0.000000 0.000000 -5.531567 -0.881010 -6.985792 4.520972 -1.996755 6.318820 -5.214886 -12.006354 4.231321 0.000000 0.000000 0.000000 4.420576 -0.164804 -1.417841 -6.543603 2.997019 -16.603616 -1.349694 11.085784 22.778222 10.990685 0.110073 -17.335555 0.000000 0.000000 0.000000 -25.198204 -18.249407 -10.865556 -32.036656 9.940387 -2.470593 6.309853 -46.565778 -5.736750 0.000000 0.000000 0.000000 44.259101 -7.170053 18.301570 41.593997 18.685750 -7.562217 -6.679992 39.455576 1.364782 0.000000 0.000000 0.000000 
-0.043595 0.953876 0.499482 -7.188293 55.607971 2.020771 8.967019 -1.641712 -10.875312 -4.953294 -0.378219 0.273347 10.220406 20.104879 13.387043 0.000000 0.000000 0.000000 -5.475275 -0.878187 -7.435218 4.626676 -2.045695 6.498230 -6.101483 -12.358488 7.333794 0.000000 0.000000 0.000000 4.028286 -0.134172 -1.668140 -6.422448 3.003586 -16.116622 -1.801873 10.489246 22.314071 11.281218 -0.638117 -16.183735 0.000000 0.000000 0.000000 -24.470823 -17.882697 -10.258855 -32.467465 8.804393 -2.398592 7.812615 -44.586099 -6.157479 0.000000 0.000000 0.000000 44.595827 -7.082878 18.191778 42.879966 18.104788 -7.764112 -6.587134 39.767396 1.581162 0.000000 0.000000 0.000000 
-0.037131 0.953499 0.500881 -7.835184 54.282931 1.360811 9.329443 -1.542707 -9.112500 -5.066855 -0.398716 -1.374542 11.057504 20.847704 13.569273 0.000000 0.000000 0.000000 -5.429539 -0.850510 -8.188282 4.262823 -1.933700 6.950145 -5.998538 -10.960367 9.760578 0.000000 0.000000 0.000000 4.000727 -0.117191 -1.871494 -5.964392 2.936977 -16.417748 -2.032052 10.591342 22.547916 10.938520 -0.890616 -15.025253 0.000000 0.000000 0.000000 -24.608222 -17.429808 -10.371338 -32.716141 9.028907 -2.509777 8.020938 -44.100558 -6.151147 0.000000 0.000000 0.000000 44.937133 -6.877131 18.353444 43.260921 17.941114 -7.907654 -6.697335 39.664618 1.587945 0.000000 0.000000 0.000000 
-0.033065 0.952595 0.502516 -7.824217 53.066723 1.170200 9.327716 -1.458775 -7.903529 -5.128501 -0.402388 -2.159424 11.836564 21.574094 13.673411 0.000000 0.000000 0.000000 -5.516757 -0.832316 -8.392424 3.640508 -1.541497 5.931670 -6.109316 -9.878639 13.162734 0.000000 0.000000 0.000000 4.165731 -0.113730 -1.950254 -6.549593 3.043934 -16.399345 -1.875368 10.262703 22.819226 10.433849 -0.961317 -14.191037 0.000000 0.000000 0.000000 -25.234715 -17.573611 -10.117101 -32.870533 9.499767 -2.677270 7.709130 -43.162107 -5.686109 0.000000 0.000000 0.000000 45.242137 -6.376772 18.457158 43.425935 18.069512 -7.884619 -6.807661 39.266974 1.535614 0.000000 0.000000 0.000000 
